<mxfile host="app.diagrams.net" modified="2024-03-10T14:56:55.027Z" agent="Mozilla/5.0 (Macintosh; Intel Mac OS X 10_15_7) AppleWebKit/605.1.15 (KHTML, like Gecko) Version/16.6 Safari/605.1.15" etag="lR1rcKgRufm6v-Zm36SY" version="24.0.4" type="github">
  <diagram id="C5RBs43oDa-KdzZeNtuy" name="Page-1">
    <mxGraphModel dx="920" dy="693" grid="1" gridSize="10" guides="1" tooltips="1" connect="1" arrows="1" fold="1" page="1" pageScale="1" pageWidth="827" pageHeight="1169" math="0" shadow="0">
      <root>
        <mxCell id="WIyWlLk6GJQsqaUBKTNV-0" />
        <mxCell id="WIyWlLk6GJQsqaUBKTNV-1" parent="WIyWlLk6GJQsqaUBKTNV-0" />
        <mxCell id="l_prRBOPt3UaEhULUR8Y-10" style="edgeStyle=orthogonalEdgeStyle;rounded=0;orthogonalLoop=1;jettySize=auto;html=1;entryX=0.5;entryY=0;entryDx=0;entryDy=0;" edge="1" parent="WIyWlLk6GJQsqaUBKTNV-1" source="WIyWlLk6GJQsqaUBKTNV-3" target="l_prRBOPt3UaEhULUR8Y-9">
          <mxGeometry relative="1" as="geometry" />
        </mxCell>
        <mxCell id="WIyWlLk6GJQsqaUBKTNV-3" value="/addIPAddress POST Request" style="rounded=1;whiteSpace=wrap;html=1;fontSize=12;glass=0;strokeWidth=1;shadow=0;" parent="WIyWlLk6GJQsqaUBKTNV-1" vertex="1">
          <mxGeometry x="344" y="30" width="140" height="60" as="geometry" />
        </mxCell>
        <mxCell id="l_prRBOPt3UaEhULUR8Y-0" value="Add IP Address Request" style="swimlane;fontStyle=0;childLayout=stackLayout;horizontal=1;startSize=30;horizontalStack=0;resizeParent=1;resizeParentMax=0;resizeLast=0;collapsible=1;marginBottom=0;whiteSpace=wrap;html=1;" vertex="1" parent="WIyWlLk6GJQsqaUBKTNV-1">
          <mxGeometry x="70" y="70" width="160" height="120" as="geometry" />
        </mxCell>
        <mxCell id="l_prRBOPt3UaEhULUR8Y-1" value="token" style="text;strokeColor=none;fillColor=none;align=left;verticalAlign=middle;spacingLeft=4;spacingRight=4;overflow=hidden;points=[[0,0.5],[1,0.5]];portConstraint=eastwest;rotatable=0;whiteSpace=wrap;html=1;" vertex="1" parent="l_prRBOPt3UaEhULUR8Y-0">
          <mxGeometry y="30" width="160" height="30" as="geometry" />
        </mxCell>
        <mxCell id="l_prRBOPt3UaEhULUR8Y-2" value="List&amp;lt;String&amp;gt; ipv4Addresses" style="text;strokeColor=none;fillColor=none;align=left;verticalAlign=middle;spacingLeft=4;spacingRight=4;overflow=hidden;points=[[0,0.5],[1,0.5]];portConstraint=eastwest;rotatable=0;whiteSpace=wrap;html=1;" vertex="1" parent="l_prRBOPt3UaEhULUR8Y-0">
          <mxGeometry y="60" width="160" height="30" as="geometry" />
        </mxCell>
        <mxCell id="l_prRBOPt3UaEhULUR8Y-3" value="List&amp;lt;String&amp;gt; ipv6Addresses" style="text;strokeColor=none;fillColor=none;align=left;verticalAlign=middle;spacingLeft=4;spacingRight=4;overflow=hidden;points=[[0,0.5],[1,0.5]];portConstraint=eastwest;rotatable=0;whiteSpace=wrap;html=1;" vertex="1" parent="l_prRBOPt3UaEhULUR8Y-0">
          <mxGeometry y="90" width="160" height="30" as="geometry" />
        </mxCell>
        <mxCell id="l_prRBOPt3UaEhULUR8Y-4" value="Add IP Address Response" style="swimlane;fontStyle=0;childLayout=stackLayout;horizontal=1;startSize=30;horizontalStack=0;resizeParent=1;resizeParentMax=0;resizeLast=0;collapsible=1;marginBottom=0;whiteSpace=wrap;html=1;" vertex="1" parent="WIyWlLk6GJQsqaUBKTNV-1">
          <mxGeometry x="20" y="220" width="220" height="210" as="geometry" />
        </mxCell>
        <mxCell id="l_prRBOPt3UaEhULUR8Y-5" value="status" style="text;strokeColor=none;fillColor=none;align=left;verticalAlign=middle;spacingLeft=4;spacingRight=4;overflow=hidden;points=[[0,0.5],[1,0.5]];portConstraint=eastwest;rotatable=0;whiteSpace=wrap;html=1;" vertex="1" parent="l_prRBOPt3UaEhULUR8Y-4">
          <mxGeometry y="30" width="220" height="30" as="geometry" />
        </mxCell>
        <mxCell id="l_prRBOPt3UaEhULUR8Y-8" value="message" style="text;strokeColor=none;fillColor=none;align=left;verticalAlign=middle;spacingLeft=4;spacingRight=4;overflow=hidden;points=[[0,0.5],[1,0.5]];portConstraint=eastwest;rotatable=0;whiteSpace=wrap;html=1;" vertex="1" parent="l_prRBOPt3UaEhULUR8Y-4">
          <mxGeometry y="60" width="220" height="30" as="geometry" />
        </mxCell>
        <mxCell id="l_prRBOPt3UaEhULUR8Y-6" value="List&amp;lt;String&amp;gt; successful_ipv4Addresses" style="text;strokeColor=none;fillColor=none;align=left;verticalAlign=middle;spacingLeft=4;spacingRight=4;overflow=hidden;points=[[0,0.5],[1,0.5]];portConstraint=eastwest;rotatable=0;whiteSpace=wrap;html=1;" vertex="1" parent="l_prRBOPt3UaEhULUR8Y-4">
          <mxGeometry y="90" width="220" height="30" as="geometry" />
        </mxCell>
        <mxCell id="l_prRBOPt3UaEhULUR8Y-7" value="List&amp;lt;String&amp;gt; successful_ipv6Addresses" style="text;strokeColor=none;fillColor=none;align=left;verticalAlign=middle;spacingLeft=4;spacingRight=4;overflow=hidden;points=[[0,0.5],[1,0.5]];portConstraint=eastwest;rotatable=0;whiteSpace=wrap;html=1;" vertex="1" parent="l_prRBOPt3UaEhULUR8Y-4">
          <mxGeometry y="120" width="220" height="30" as="geometry" />
        </mxCell>
        <mxCell id="l_prRBOPt3UaEhULUR8Y-29" value="List&amp;lt;String&amp;gt; failed_ipv4Addresses" style="text;strokeColor=none;fillColor=none;align=left;verticalAlign=middle;spacingLeft=4;spacingRight=4;overflow=hidden;points=[[0,0.5],[1,0.5]];portConstraint=eastwest;rotatable=0;whiteSpace=wrap;html=1;" vertex="1" parent="l_prRBOPt3UaEhULUR8Y-4">
          <mxGeometry y="150" width="220" height="30" as="geometry" />
        </mxCell>
        <mxCell id="l_prRBOPt3UaEhULUR8Y-30" value="List&amp;lt;String&amp;gt; failed_ipv6Addresses" style="text;strokeColor=none;fillColor=none;align=left;verticalAlign=middle;spacingLeft=4;spacingRight=4;overflow=hidden;points=[[0,0.5],[1,0.5]];portConstraint=eastwest;rotatable=0;whiteSpace=wrap;html=1;" vertex="1" parent="l_prRBOPt3UaEhULUR8Y-4">
          <mxGeometry y="180" width="220" height="30" as="geometry" />
        </mxCell>
        <mxCell id="l_prRBOPt3UaEhULUR8Y-12" style="edgeStyle=orthogonalEdgeStyle;rounded=0;orthogonalLoop=1;jettySize=auto;html=1;entryX=0;entryY=0.5;entryDx=0;entryDy=0;" edge="1" parent="WIyWlLk6GJQsqaUBKTNV-1" source="l_prRBOPt3UaEhULUR8Y-9" target="l_prRBOPt3UaEhULUR8Y-11">
          <mxGeometry relative="1" as="geometry" />
        </mxCell>
        <mxCell id="l_prRBOPt3UaEhULUR8Y-15" style="edgeStyle=orthogonalEdgeStyle;rounded=0;orthogonalLoop=1;jettySize=auto;html=1;entryX=0.5;entryY=0;entryDx=0;entryDy=0;" edge="1" parent="WIyWlLk6GJQsqaUBKTNV-1" source="l_prRBOPt3UaEhULUR8Y-9" target="l_prRBOPt3UaEhULUR8Y-14">
          <mxGeometry relative="1" as="geometry" />
        </mxCell>
        <mxCell id="l_prRBOPt3UaEhULUR8Y-9" value="Is Token Valid?" style="rhombus;whiteSpace=wrap;html=1;" vertex="1" parent="WIyWlLk6GJQsqaUBKTNV-1">
          <mxGeometry x="374" y="140" width="80" height="80" as="geometry" />
        </mxCell>
        <mxCell id="l_prRBOPt3UaEhULUR8Y-11" value="Return Error Response" style="rounded=1;whiteSpace=wrap;html=1;" vertex="1" parent="WIyWlLk6GJQsqaUBKTNV-1">
          <mxGeometry x="530" y="150" width="120" height="60" as="geometry" />
        </mxCell>
        <mxCell id="l_prRBOPt3UaEhULUR8Y-13" value="No" style="text;html=1;align=center;verticalAlign=middle;resizable=0;points=[];autosize=1;strokeColor=none;fillColor=none;" vertex="1" parent="WIyWlLk6GJQsqaUBKTNV-1">
          <mxGeometry x="470" y="148" width="40" height="30" as="geometry" />
        </mxCell>
        <mxCell id="l_prRBOPt3UaEhULUR8Y-22" style="edgeStyle=orthogonalEdgeStyle;rounded=0;orthogonalLoop=1;jettySize=auto;html=1;exitX=0;exitY=1;exitDx=0;exitDy=0;entryX=0.5;entryY=0;entryDx=0;entryDy=0;" edge="1" parent="WIyWlLk6GJQsqaUBKTNV-1" source="l_prRBOPt3UaEhULUR8Y-14" target="l_prRBOPt3UaEhULUR8Y-20">
          <mxGeometry relative="1" as="geometry" />
        </mxCell>
        <mxCell id="l_prRBOPt3UaEhULUR8Y-23" style="edgeStyle=orthogonalEdgeStyle;rounded=0;orthogonalLoop=1;jettySize=auto;html=1;exitX=1;exitY=1;exitDx=0;exitDy=0;entryX=0.5;entryY=0;entryDx=0;entryDy=0;" edge="1" parent="WIyWlLk6GJQsqaUBKTNV-1" source="l_prRBOPt3UaEhULUR8Y-14" target="l_prRBOPt3UaEhULUR8Y-21">
          <mxGeometry relative="1" as="geometry" />
        </mxCell>
        <mxCell id="l_prRBOPt3UaEhULUR8Y-14" value="Is Token Admin?" style="rhombus;whiteSpace=wrap;html=1;" vertex="1" parent="WIyWlLk6GJQsqaUBKTNV-1">
          <mxGeometry x="374" y="280" width="80" height="80" as="geometry" />
        </mxCell>
        <mxCell id="l_prRBOPt3UaEhULUR8Y-16" value="Yes" style="text;html=1;align=center;verticalAlign=middle;resizable=0;points=[];autosize=1;strokeColor=none;fillColor=none;" vertex="1" parent="WIyWlLk6GJQsqaUBKTNV-1">
          <mxGeometry x="414" y="230" width="40" height="30" as="geometry" />
        </mxCell>
        <mxCell id="l_prRBOPt3UaEhULUR8Y-17" style="edgeStyle=orthogonalEdgeStyle;rounded=0;orthogonalLoop=1;jettySize=auto;html=1;entryX=0;entryY=0.5;entryDx=0;entryDy=0;" edge="1" parent="WIyWlLk6GJQsqaUBKTNV-1" target="l_prRBOPt3UaEhULUR8Y-18">
          <mxGeometry relative="1" as="geometry">
            <mxPoint x="454" y="321" as="sourcePoint" />
          </mxGeometry>
        </mxCell>
        <mxCell id="l_prRBOPt3UaEhULUR8Y-18" value="Return Error Response" style="rounded=1;whiteSpace=wrap;html=1;" vertex="1" parent="WIyWlLk6GJQsqaUBKTNV-1">
          <mxGeometry x="530" y="291" width="120" height="60" as="geometry" />
        </mxCell>
        <mxCell id="l_prRBOPt3UaEhULUR8Y-19" value="No" style="text;html=1;align=center;verticalAlign=middle;resizable=0;points=[];autosize=1;strokeColor=none;fillColor=none;" vertex="1" parent="WIyWlLk6GJQsqaUBKTNV-1">
          <mxGeometry x="470" y="289" width="40" height="30" as="geometry" />
        </mxCell>
        <mxCell id="l_prRBOPt3UaEhULUR8Y-27" style="edgeStyle=orthogonalEdgeStyle;rounded=0;orthogonalLoop=1;jettySize=auto;html=1;entryX=0.5;entryY=0;entryDx=0;entryDy=0;" edge="1" parent="WIyWlLk6GJQsqaUBKTNV-1" source="l_prRBOPt3UaEhULUR8Y-20" target="l_prRBOPt3UaEhULUR8Y-25">
          <mxGeometry relative="1" as="geometry" />
        </mxCell>
        <mxCell id="l_prRBOPt3UaEhULUR8Y-20" value="Process Each IPv4 Address" style="rounded=1;whiteSpace=wrap;html=1;" vertex="1" parent="WIyWlLk6GJQsqaUBKTNV-1">
          <mxGeometry x="269" y="420" width="120" height="60" as="geometry" />
        </mxCell>
        <mxCell id="l_prRBOPt3UaEhULUR8Y-21" value="Process Each IPv6 Address" style="rounded=1;whiteSpace=wrap;html=1;" vertex="1" parent="WIyWlLk6GJQsqaUBKTNV-1">
          <mxGeometry x="449" y="420" width="120" height="60" as="geometry" />
        </mxCell>
        <mxCell id="l_prRBOPt3UaEhULUR8Y-25" value="Is Address Valid?" style="rhombus;whiteSpace=wrap;html=1;" vertex="1" parent="WIyWlLk6GJQsqaUBKTNV-1">
          <mxGeometry x="283.5" y="540" width="91" height="90" as="geometry" />
        </mxCell>
      </root>
    </mxGraphModel>
  </diagram>
</mxfile>
